HIERARCHY
ROOT hip
{
	OFFSET 0.000000 0.000000 0.000000 
	CHANNELS 6 Xposition Yposition Zposition Xrotation Zrotation Yrotation
	JOINT abdomen
	{
		OFFSET 0.000000 3.402643 0.000000 
		CHANNELS 3 Xrotation Zrotation Yrotation
		JOINT chest
		{
			OFFSET 0.000000 8.438565 -0.680529 
			CHANNELS 3 Xrotation Zrotation Yrotation
			JOINT neck
			{
				OFFSET 0.000000 10.207942 -0.272212 
				CHANNELS 3 Xrotation Zrotation Yrotation
				JOINT head
				{
					OFFSET 0.000000 3.130431 0.000000 
					CHANNELS 3 Xrotation Zrotation Yrotation
					End Site
					{
						OFFSET 0.000000 3.130435 0.000000 
					}
				}
			}
			JOINT lCollar
			{
				OFFSET 3.470700 6.669187 -0.816635 
				CHANNELS 3 Yrotation Zrotation Xrotation
				JOINT lShldr
				{
					OFFSET 3.198488 0.000000 0.000000 
					CHANNELS 3 Zrotation Yrotation Xrotation
					JOINT lForeArm
					{
						OFFSET 10.139888 0.000000 0.000000 
						CHANNELS 3 Yrotation Zrotation Xrotation
						JOINT lHand
						{
							OFFSET 8.370511 0.000000 0.000000 
							CHANNELS 3 Zrotation Yrotation Xrotation
							End Site
							{
								OFFSET 4.083176 0.000000 0.000000 
							}
						}
					}
				}
			}
			JOINT rCollar
			{
				OFFSET -3.470700 6.669187 -0.816635 
				CHANNELS 3 Yrotation Zrotation Xrotation
				JOINT rShldr
				{
					OFFSET -3.198488 0.000000 0.000000 
					CHANNELS 3 Zrotation Yrotation Xrotation
					JOINT rForeArm
					{
						OFFSET -10.139888 0.000000 0.000000 
						CHANNELS 3 Yrotation Zrotation Xrotation
						JOINT rHand
						{
							OFFSET -8.370511 0.000000 0.000000 
							CHANNELS 3 Zrotation Yrotation Xrotation
							End Site
							{
								OFFSET -4.083176 0.000000 0.000000 
							}
						}
					}
				}
			}
		}
	}
	JOINT lThigh
	{
		OFFSET 5.308129 -1.633274 1.361059 
		CHANNELS 3 Xrotation Zrotation Yrotation
		JOINT lShin
		{
			OFFSET -2.041588 -20.007561 0.000000 
			CHANNELS 3 Xrotation Zrotation Yrotation
			JOINT lFoot
			{
				OFFSET 0.000000 -19.190928 -1.224953 
				CHANNELS 3 Xrotation Yrotation Zrotation
				End Site
				{
					OFFSET 0.000000 -2.449906 4.627600 
				}
			}
		}
	}
	JOINT rThigh
	{
		OFFSET -5.308129 -1.633274 1.361059 
		CHANNELS 3 Xrotation Zrotation Yrotation
		JOINT rShin
		{
			OFFSET 2.041588 -20.007561 0.000000 
			CHANNELS 3 Xrotation Zrotation Yrotation
			JOINT rFoot
			{
				OFFSET 0.000000 -19.190928 -1.224953 
				CHANNELS 3 Xrotation Yrotation Zrotation
				End Site
				{
					OFFSET 0.000000 -2.449906 4.627600 
				}
			}
		}
	}
}
MOTION
Frames: 10
Frame Time: 0.033333
5.270034 49.029263 1.957963 -2.659810 -3.109804 -13.878459 0.000000 0.000000 0.000000 15.323005 -7.929881 4.021661 -16.318567 14.324321 -11.383761 -8.084644 -10.416151 1.557367 -3.521967 9.154817 6.304141 -94.776543 -5.547328 7.959333 -22.357557 19.874504 23.936401 13.560155 -0.482731 -9.180303 3.089181 -14.089146 8.026228 93.171837 50.281677 -23.131472 39.349506 -6.020885 46.585567 -21.568636 -5.616319 -9.596381 -16.844137 19.918602 15.823938 26.710255 -3.147286 -21.017103 1.123309 0.548644 -9.994211 3.453334 -13.402309 -18.929377 27.242842 -1.838516 24.482801 1.058345 0.275226 -6.080505 
5.956352 48.877472 2.671618 -2.659068 -3.633960 -13.709922 0.000000 0.000000 0.000000 14.362099 -5.245770 7.678553 -20.944920 14.205311 -12.949593 -5.407418 -12.019641 1.016960 -3.521967 9.154817 6.304141 -99.992813 -11.396136 23.593201 -25.427259 30.364132 24.749052 7.169320 2.228272 -8.546987 3.089181 -14.089146 8.026228 91.242264 34.507275 -26.630497 57.565891 2.665838 47.203262 -21.106604 -5.028956 -9.620052 -17.320435 19.992090 16.132826 29.821224 -3.380523 -21.244986 -1.618175 0.624773 -7.596457 1.402862 -14.942794 -19.645170 31.691710 -2.382753 27.937126 8.385883 -0.051492 -1.986724 
6.491782 48.699944 3.302874 -2.805872 -4.133495 -13.904305 0.000000 0.000000 0.000000 13.205029 -3.417154 11.445938 -21.249651 13.263005 -12.896399 -5.431869 -12.889280 0.841031 -3.521967 9.154817 6.304141 -94.623238 -12.912924 32.921833 -51.629375 23.613241 24.657183 3.889368 1.627988 -8.178414 3.089181 -14.089146 8.026228 90.312439 23.241806 -26.898533 67.370544 5.379149 43.432369 -20.500355 -4.177349 -9.683537 -17.311329 20.500710 17.000893 32.502708 -3.894717 -22.084766 -3.646439 0.597304 -5.777377 -1.681399 -16.515039 -19.939587 37.690987 -3.341845 30.047646 15.336734 0.255005 2.573333 
7.043366 48.424244 3.869122 -3.052412 -4.282989 -14.024753 0.000000 0.000000 0.000000 12.895864 -2.273888 9.382276 -15.511703 12.961351 -10.484016 -10.328610 -12.751027 2.591893 -3.521967 9.154817 6.304141 -84.228226 -16.098438 33.738075 -77.197067 14.811228 19.663137 -1.813715 2.542851 -7.770357 3.089181 -14.089146 8.026228 90.270714 18.963005 -20.467999 71.975021 5.049772 42.648605 -19.390146 -3.881401 -9.644739 -17.634541 20.405197 17.224100 35.500698 -4.071140 -22.432756 -5.980381 0.423153 -2.989095 -5.361802 -18.570829 -20.227131 43.940830 -4.503932 30.571125 21.669432 1.128897 7.791200 
7.508044 48.186726 4.395596 -4.098235 -4.732266 -14.298349 0.000000 0.000000 0.000000 13.851506 -1.012142 4.746732 -10.283966 10.721372 -6.590005 -13.630632 -10.386791 3.880702 -3.521967 9.154817 6.304141 -72.607185 -22.287889 29.835640 -92.395874 9.587000 12.875819 -2.563838 3.094490 -7.720215 3.089181 -14.089146 8.026228 88.918503 19.109028 -9.532862 74.078384 3.404035 43.422741 -19.227982 -3.322035 -9.696913 -16.960903 20.200371 17.332390 37.944435 -3.885494 -22.713726 -7.449603 0.170500 -0.629127 -8.408003 -20.511786 -20.625082 48.920776 -5.414595 28.044025 23.147242 1.477552 9.326653 
7.860219 48.047016 4.787438 -4.877465 -5.548402 -15.337710 0.000000 0.000000 0.000000 14.620735 0.634664 1.025544 -5.835343 7.657297 -2.748441 -16.081463 -7.717645 4.768894 -3.521967 9.154817 6.304141 -58.054169 -28.950533 22.993221 -99.790321 6.791826 6.600694 0.695372 2.701081 -7.976865 3.089181 -14.089146 8.026228 86.596191 20.877331 1.477349 75.552917 1.641644 43.375416 -17.850300 -3.021217 -9.609781 -16.180862 20.437202 17.467939 39.716000 -3.487406 -22.306856 -7.965165 0.053993 0.475456 -11.639900 -21.586363 -20.653879 51.000057 -5.602004 24.963549 21.737019 1.268055 8.640008 
8.072937 47.957718 5.090497 -5.235771 -6.552443 -17.176357 0.000000 0.000000 0.000000 14.806764 1.523436 0.078357 -2.522378 7.655460 -0.827311 -18.126844 -7.327316 6.419596 -3.521967 9.154817 6.304141 -40.683212 -35.407059 14.978014 -101.478455 5.279691 -0.062838 5.063972 3.193340 -8.346600 3.089181 -14.089146 8.026228 84.470581 22.027235 10.207639 76.353821 -0.284701 42.743916 -17.699131 -3.152507 -9.587889 -15.310325 21.243607 18.088858 41.077148 -3.236163 -21.729155 -8.505013 -0.105934 1.594926 -14.636836 -21.428190 -20.064741 49.638336 -5.195181 22.633215 20.535467 1.097363 8.166408 
8.245811 47.972233 5.334300 -5.460786 -7.175849 -18.411263 0.000000 0.000000 0.000000 14.867594 1.786935 -0.801001 -0.204605 9.061974 0.624474 -19.908531 -7.351689 8.457919 -3.521967 9.154817 6.304141 -22.116386 -38.076279 5.649866 -102.231293 3.415730 -9.901760 9.238116 4.882394 -8.639239 3.089181 -14.089146 8.026228 83.127876 23.258526 18.093571 75.933067 -2.513026 40.155487 -18.319170 -3.820706 -9.582443 -14.569461 21.334608 18.170546 41.482513 -2.941231 -20.610300 -8.510932 -0.240156 2.478083 -16.523275 -21.200409 -20.027994 44.891373 -3.993635 21.165611 21.192558 1.255748 9.067975 
8.319411 47.994766 5.565997 -5.433393 -7.872114 -18.817207 0.000000 0.000000 0.000000 14.323052 2.711728 -2.747072 2.842543 9.335423 2.713186 -22.536804 -6.363900 10.179751 -3.521967 9.154817 6.304141 -5.914788 -35.734612 -1.295048 -104.558876 1.909454 -16.216417 12.346905 5.444652 -8.829034 3.089181 -14.089146 8.026228 83.448097 24.689693 24.869637 74.304504 -4.716847 39.086052 -17.735155 -3.757069 -9.537154 -14.324898 21.547897 17.964966 41.880161 -2.441133 -19.890690 -8.520466 -0.383298 3.324895 -17.098663 -20.475899 -19.902792 37.540169 -2.248130 22.138523 23.012171 1.671417 10.496974 
8.185404 48.032295 5.860489 -5.293209 -8.503945 -18.017302 0.000000 0.000000 0.000000 13.510471 5.046034 -4.048468 4.088937 6.818762 4.081993 -23.856108 -4.189779 9.517241 -3.521967 9.154817 6.304141 3.856686 -31.940460 -5.397037 -108.574371 0.433775 -19.948029 13.843387 3.789818 -9.011892 3.089181 -14.089146 8.026228 83.370316 24.809633 28.388519 74.753876 -5.809235 41.460396 -17.500622 -2.918649 -9.590034 -14.198249 22.173834 18.055534 41.990555 -2.248130 -20.639198 -8.354589 -0.508298 4.436233 -15.896419 -19.574245 -19.712889 28.239147 -0.350168 26.609154 26.311428 2.370612 12.741804 
